# File created by Blade
# Date/Time:  Tue Sep 30 19:31:45 2014
#---------------------------------------------------------
:version 1.10
:name HOM
:units
  mass 1.0
  length 1.000000
  angle deg
:documentation
     Acclaim Skeleton File
:root
   axis xyz
   order TX TY TZ RX RY RZ
   position 0.000000 0.000000 0.000000
   orientation 0 0 0
:bonedata
   begin
      id 1
      name Spine_dum
      direction 0.000000 1.000000 0.000000
      length 3.241213
      axis 0.0 0.0 0.0 xyz
   end
   begin
      id 2
      name LeftUpLeg_dum
      direction 1.000000 0.000000 0.000000
      length 3.434019
      axis 0.0 0.0 0.0 xyz
   end
   begin
      id 3
      name RightUpLeg_dum
      direction -1.000000 0.000000 0.000000
      length 3.434019
      axis 0.0 0.0 0.0 xyz
   end
   begin
      id 4
      name Spine
      direction 0.000000 1.000000 0.000000
      length 0.000000
      axis 0.0 0.0 0.0 xyz
      dof rx ry rz
   end
   begin
      id 5
      name Spine_dum1
      direction 0.000000 1.000000 0.000000
      length 18.382958
      axis 0.0 0.0 0.0 xyz
   end
   begin
      id 6
      name Spine_dum2
      direction 0.000000 1.000000 0.000000
      length 12.828261
      axis 0.0 0.0 0.0 xyz
   end
   begin
      id 7
      name Spine_dum3
      direction 0.000000 1.000000 0.000000
      length 12.828261
      axis 0.0 0.0 0.0 xyz
   end
   begin
      id 8
      name Head
      direction 0.000000 1.000000 0.000000
      length 4.527550
      axis 0.0 0.0 0.0 xyz
      dof rx ry rz
   end
   begin
      id 9
      name LeftShoulder
      direction 1.000000 0.000000 0.000000
      length 7.748055
      axis 0.0 0.0 -90.0 xyz
      dof rx ry rz
   end
   begin
      id 10
      name LeftArm
      direction 1.000000 0.000000 0.000000
      length 10.635614
      axis 0.0 0.0 -90.0 xyz
      dof rx ry rz
   end
   begin
      id 11
      name LeftForeArm
      direction 1.000000 0.000000 0.000000
      length 8.346755
      axis 0.0 0.0 -90.0 xyz
      dof ry rz rx
   end
   begin
      id 12
      name LeftHand
      direction 0.000000 0.000000 0.000000
      length 0.000000
      axis 0.0 0.0 -90.0 xyz
      dof rx ry rz
   end
   begin
      id 13
      name LeftHand_dum1
      direction 0.000000 0.000000 0.000000
      length 0.000000
      axis 0.0 0.0 -90.0 xyz
   end
   begin
      id 14
      name LeftHand_dum2
      direction 1.000000 0.000000 0.000000
      length 3.937000
      axis 0.0 0.0 -90.0 xyz
   end
   begin
      id 15
      name LeftHandThumb1
      direction 0.000000 0.000000 1.000000
      length 3.937000
      axis 0.0 0.0 -90.0 xyz
      dof rx rz ry
   end
   begin
      id 16
      name RightShoulder
      direction -1.000000 0.000000 0.000000
      length 7.748055
      axis 0.0 0.0 90.0 xyz
      dof rx ry rz
   end
   begin
      id 17
      name RightArm
      direction -1.000000 0.000000 0.000000
      length 10.635614
      axis 0.0 0.0 90.0 xyz
      dof rx ry rz
   end
   begin
      id 18
      name RightForeArm
      direction -1.000000 0.000000 0.000000
      length 8.346755
      axis 0.0 0.0 90.0 xyz
      dof ry rz rx
   end
   begin
      id 19
      name RightHand
      direction 0.000000 0.000000 0.000000
      length 0.000000
      axis 0.0 0.0 90.0 xyz
      dof rx ry rz
   end
   begin
      id 20
      name RightHand_dum1
      direction 0.000000 0.000000 0.000000
      length 0.000000
      axis 0.0 0.0 90.0 xyz
   end
   begin
      id 21
      name RightHand_dum2
      direction -1.000000 0.000000 0.000000
      length 3.937000
      axis 0.0 0.0 90.0 xyz
   end
   begin
      id 22
      name RightHandThumb1
      direction 0.000000 0.000000 1.000000
      length 3.937000
      axis 0.0 0.0 90.0 xyz
      dof rx rz ry
   end
   begin
      id 23
      name LeftUpLeg
      direction 0.000000 -1.000000 0.000000
      length 15.713025
      axis 0.0 0.0 0.0 xyz
      dof rx ry rz
   end
   begin
      id 24
      name LeftLeg
      direction 0.000000 -1.000000 0.000000
      length 14.435119
      axis 0.0 0.0 0.0 xyz
      dof rx ry rz
   end
   begin
      id 25
      name LeftFoot
      direction 0.000000 -0.258819 0.965926
      length 4.938895
      axis 15.0 0.0 0.0 xyz
      dof rx ry rz
   end
   begin
      id 26
      name LeftToeBase
      direction 0.000000 0.000000 1.000000
      length 2.952750
      axis 0.0 0.0 0.0 xyz
      dof rx ry rz
   end
   begin
      id 27
      name RightUpLeg
      direction 0.000000 -1.000000 0.000000
      length 15.713025
      axis 0.0 0.0 0.0 xyz
      dof rx ry rz
   end
   begin
      id 28
      name RightLeg
      direction 0.000000 -1.000000 0.000000
      length 14.435119
      axis 0.0 0.0 0.0 xyz
      dof rx ry rz
   end
   begin
      id 29
      name RightFoot
      direction 0.000000 -0.258819 0.965926
      length 4.938895
      axis 15.0 0.0 0.0 xyz
      dof rx ry rz
   end
   begin
      id 30
      name RightToeBase
      direction 0.000000 0.000000 1.000000
      length 2.952750
      axis 0.0 0.0 0.0 xyz
      dof rx ry rz
   end
:hierarchy
   begin
      root Spine_dum LeftUpLeg_dum RightUpLeg_dum
      Spine_dum Spine
      LeftUpLeg_dum LeftUpLeg
      RightUpLeg_dum RightUpLeg
      Spine Spine_dum1 Spine_dum2 Spine_dum3
      Spine_dum1 Head
      Spine_dum2 LeftShoulder
      Spine_dum3 RightShoulder
      LeftShoulder LeftArm
      LeftArm LeftForeArm
      LeftForeArm LeftHand
      LeftHand LeftHand_dum1 LeftHand_dum2
      LeftHand_dum1 LeftHandThumb1
      RightShoulder RightArm
      RightArm RightForeArm
      RightForeArm RightHand
      RightHand RightHand_dum1 RightHand_dum2
      RightHand_dum1 RightHandThumb1
      LeftUpLeg LeftLeg
      LeftLeg LeftFoot
      LeftFoot LeftToeBase
      RightUpLeg RightLeg
      RightLeg RightFoot
      RightFoot RightToeBase
   end

# File created by Blade
# Date/Time:  Mon Sep 22 19:00:17 2014
# Frame Rate: 120.000 fps
#------------------------------------------------------
:FULLY-SPECIFIED
:DEGREES
233
root -0.452939 32.739928 -3.287650 39.892803 25.551859 3.282165
Spine -50.968275 13.123965 -19.791659
Head 5.878278 -20.203774 -5.366118
LeftShoulder -9.396927 41.321744 13.477695
LeftArm 72.081325 35.034517 -48.190529
LeftForeArm 12.096911 -0.000000 6.792416
LeftHand -20.552358 -0.000000 -9.455658
LeftHandThumb1 -26.253704 0.000000 33.147579
RightShoulder -14.199672 5.148469 -54.703120
RightArm 110.883238 37.043273 106.154756
RightForeArm 59.837525 -0.000000 55.430418
RightHand 16.631101 -0.000000 -18.221250
RightHandThumb1 -24.326973 -0.000000 -32.862282
LeftUpLeg -36.628668 -9.042218 8.598388
LeftLeg -0.611616 -0.000000 0.000000
LeftFoot 0.497820 -7.291858 -3.724720
LeftToeBase 1.833755 -0.000000 -0.000000
RightUpLeg -30.291644 -20.651473 10.940036
RightLeg -3.735668 -0.000000 0.000000
RightFoot -11.482843 -15.212263 21.545788
RightToeBase 14.791111 -0.000000 -0.000000
234
root -0.453732 32.740797 -3.286727 39.859423 25.546690 3.273413
Spine -50.946494 13.139525 -19.792040
Head 5.774620 -20.251714 -5.516670
LeftShoulder -9.363623 41.342159 13.483473
LeftArm 72.095680 35.033345 -48.165975
LeftForeArm 12.057351 -0.000000 6.841980
LeftHand -20.524757 -0.000000 -9.365688
LeftHandThumb1 -26.253704 0.000000 33.147579
RightShoulder -14.088541 5.406187 -54.729426
RightArm 110.486319 37.060623 106.226313
RightForeArm 59.770452 -0.000000 55.709459
RightHand 16.814952 -0.000000 -17.938946
RightHandThumb1 -24.326973 -0.000000 -32.862282
LeftUpLeg -36.578833 -8.970736 8.546811
LeftLeg -0.633201 -0.000000 0.000000
LeftFoot 0.527811 -7.377203 -3.720028
LeftToeBase 1.818079 -0.000000 -0.000000
RightUpLeg -30.319056 -20.759350 11.012914
RightLeg -3.674658 -0.000000 0.000000
RightFoot -11.459167 -15.127232 21.452182
RightToeBase 14.811556 -0.000000 -0.000000
235
root -0.456415 32.740602 -3.288047 39.828905 25.533873 3.267931
Spine -50.907574 13.150905 -19.787359
Head 5.625114 -20.282934 -5.646796
LeftShoulder -9.356683 41.340564 13.478356
LeftArm 72.105892 35.041087 -48.141938
LeftForeArm 12.054415 -0.000000 6.880785
LeftHand -20.476149 -0.000000 -9.390759
LeftHandThumb1 -26.253704 0.000000 33.147579
RightShoulder -13.979488 5.510165 -54.708086
RightArm 110.329367 37.036848 106.413256
RightForeArm 59.791182 -0.000000 55.941279
RightHand 17.018374 -0.000000 -17.676081
RightHandThumb1 -24.326973 -0.000000 -32.862282
LeftUpLeg -36.547578 -8.942112 8.523365
LeftLeg -0.633916 -0.000000 0.000000
LeftFoot 0.527449 -7.387583 -3.702985
LeftToeBase 1.789942 -0.000000 -0.000000
RightUpLeg -30.325682 -20.770076 11.018982
RightLeg -3.617195 -0.000000 0.000000
RightFoot -11.477863 -15.103058 21.405007
RightToeBase 14.841787 -0.000000 -0.000000
236
root -0.459279 32.740693 -3.288364 39.803494 25.518215 3.257236
Spine -50.874236 13.162041 -19.784937
Head 5.480149 -20.285834 -5.756772
LeftShoulder -9.369411 41.333211 13.466137
LeftArm 72.119765 35.056218 -48.107942
LeftForeArm 12.076691 -0.000000 6.916622
LeftHand -20.470732 -0.000000 -9.482868
LeftHandThumb1 -26.253704 0.000000 33.147579
RightShoulder -13.899553 5.491016 -54.668637
RightArm 110.278162 36.998417 106.618821
RightForeArm 60.151896 -0.000000 56.139176
RightHand 17.227752 -0.000000 -17.586874
RightHandThumb1 -24.326973 -0.000000 -32.862282
LeftUpLeg -36.520661 -8.913918 8.512415
LeftLeg -0.640973 -0.000000 0.000000
LeftFoot 0.528389 -7.404045 -3.704267
LeftToeBase 1.807080 -0.000000 -0.000000
RightUpLeg -30.304870 -20.762690 11.018202
RightLeg -3.621784 -0.000000 0.000000
RightFoot -11.463617 -15.092665 21.401988
RightToeBase 14.828096 -0.000000 -0.000000
237
root -0.462517 32.740880 -3.289575 39.780963 25.500521 3.249658
Spine -50.836708 13.183438 -19.794106
Head 5.323923 -20.299224 -5.895462
LeftShoulder -9.375999 41.308553 13.454529
LeftArm 72.150399 35.085131 -48.031848
LeftForeArm 12.046938 -0.000000 6.951117
LeftHand -20.466909 0.000000 -9.423936
LeftHandThumb1 -26.253704 0.000000 33.147579
RightShoulder -13.828555 5.460200 -54.646243
RightArm 110.207624 36.969110 106.794890
RightForeArm 60.775554 -0.000000 56.344054
RightHand 17.612882 -0.000000 -17.891846
RightHandThumb1 -24.326973 -0.000000 -32.862282
LeftUpLeg -36.496167 -8.894079 8.504954
LeftLeg -0.647801 -0.000000 0.000000
LeftFoot 0.524872 -7.396140 -3.686415
LeftToeBase 1.817875 -0.000000 -0.000000
RightUpLeg -30.290810 -20.762305 11.020899
RightLeg -3.623463 -0.000000 0.000000
RightFoot -11.455797 -15.053675 21.457461
RightToeBase 14.779289 -0.000000 -0.000000
238
root -0.465188 32.741044 -3.290303 39.754613 25.487904 3.237724
Spine -50.801208 13.202983 -19.791845
Head 5.160323 -20.324391 -6.013896
LeftShoulder -9.382591 41.315283 13.435807
LeftArm 72.190740 35.094478 -47.948543
LeftForeArm 12.047087 0.000000 6.993529
LeftHand -20.454000 -0.000000 -9.564463
LeftHandThumb1 -26.253704 0.000000 33.147579
RightShoulder -13.741863 5.281719 -54.600468
RightArm 110.315868 36.913131 107.080456
RightForeArm 61.701965 0.000000 56.523163
RightHand 17.909048 -0.000000 -17.629581
RightHandThumb1 -24.326973 -0.000000 -32.862282
LeftUpLeg -36.473057 -8.883017 8.506803
LeftLeg -0.651033 -0.000000 0.000000
LeftFoot 0.530869 -7.391507 -3.689377
LeftToeBase 1.808722 -0.000000 -0.000000
RightUpLeg -30.298152 -20.808121 11.059614
RightLeg -3.602135 -0.000000 0.000000
RightFoot -11.426902 -15.009656 21.391855
RightToeBase 14.800983 -0.000000 -0.000000
239
root -0.468229 32.741532 -3.291386 39.733007 25.483399 3.226296
Spine -50.764862 13.215650 -19.783401
Head 4.985270 -20.397964 -6.137831
LeftShoulder -9.403572 41.328208 13.402117
LeftArm 72.247425 35.098734 -47.848210
LeftForeArm 12.036344 -0.000000 7.016238
LeftHand -20.404193 0.000000 -9.595848
LeftHandThumb1 -26.253704 0.000000 33.147579
RightShoulder -13.659320 4.945967 -54.510949
RightArm 110.610479 36.825511 107.431549
RightForeArm 62.785180 -0.000000 56.662226
RightHand 18.361089 -0.000000 -17.572300
RightHandThumb1 -24.326973 -0.000000 -32.862282
LeftUpLeg -36.457339 -8.869742 8.511138
LeftLeg -0.652472 -0.000000 0.000000
LeftFoot 0.535716 -7.395713 -3.693985
LeftToeBase 1.767787 -0.000000 -0.000000
RightUpLeg -30.284319 -20.844730 11.092833
RightLeg -3.620911 -0.000000 0.000000
RightFoot -11.386598 -14.968656 21.360348
RightToeBase 14.795742 -0.000000 -0.000000
240
root -0.482115 32.742499 -3.302501 39.781138 25.538979 3.197926
Spine -50.752957 13.183863 -19.740823
Head 4.792143 -20.479336 -6.269721
LeftShoulder -9.398927 41.303241 13.373288
LeftArm 72.255002 35.077944 -47.816013
LeftForeArm 12.047807 -0.000000 7.052490
LeftHand -20.407722 -0.000000 -9.633245
LeftHandThumb1 -26.253704 0.000000 33.147579
RightShoulder -13.579309 4.762603 -54.511209
RightArm 110.729419 36.815017 107.751036
RightForeArm 63.715226 0.000000 56.913016
RightHand 18.636554 -0.000000 -17.513919
RightHandThumb1 -24.326973 -0.000000 -32.862282
LeftUpLeg -36.591753 -8.921341 8.638230
LeftLeg -0.595466 -0.000000 0.000000
LeftFoot 0.534657 -7.364248 -3.754629
LeftToeBase 1.775943 -0.000000 -0.000000
RightUpLeg -30.358854 -20.800592 11.166498
RightLeg -3.638803 -0.000000 0.000000
RightFoot -11.372224 -15.063140 21.303010
RightToeBase 14.808215 -0.000000 -0.000000
241
root -0.485675 32.743005 -3.305426 39.781462 25.534716 3.200326
Spine -50.724279 13.179444 -19.740643
Head 4.673348 -20.516302 -6.384976
LeftShoulder -9.408905 41.317235 13.350458
LeftArm 72.225211 35.055540 -47.845714
LeftForeArm 12.106924 -0.000000 7.084815
LeftHand -20.420405 -0.000000 -9.677425
LeftHandThumb1 -26.253704 0.000000 33.147579
RightShoulder -13.477873 4.499791 -54.445302
RightArm 110.974908 36.775297 108.115112
RightForeArm 64.379696 0.000000 57.187229
RightHand 18.700802 0.000000 -17.668007
RightHandThumb1 -24.326973 -0.000000 -32.862282
LeftUpLeg -36.602740 -8.934712 8.652729
LeftLeg -0.590597 -0.000000 0.000000
LeftFoot 0.543107 -7.352543 -3.764698
LeftToeBase 1.783050 -0.000000 -0.000000
RightUpLeg -30.429556 -20.882629 11.225324
RightLeg -3.550063 -0.000000 0.000000
RightFoot -11.390792 -14.946560 21.302663
RightToeBase 14.821518 -0.000000 -0.000000
